<?xml version="1.0" encoding="UTF-8"?>
<svg version="1.1" viewBox="0 0 2048 2048" width="512" height="512" xmlns="http://www.w3.org/2000/svg">
<path transform="translate(668,127)" d="m0 0h12l15 3 14 7 10 8 63 63 4 1 21-12 31-15 33-13 25-8 23-6 28-6 25-4 31-3 23-1h19l35 2 33 4 36 7 26 7 36 12 24 10 24 11 22 12 5 3 4-2 60-60 11-9 14-7 14-3h14l12 2 12 5 10 7 8 7 7 10 5 10 3 10 1 7v11l-3 15-8 16-13 15-46 46 2 4 15 16 9 11 13 16 13 18 10 15 11 18 12 22 8 16 11 24 10 27 9 28 6 24 6 31 2 12v5h91l16 2 15 4 14 6 16 10 14 12 10 11 10 16 7 15 4 13 2 11 1 13v751l-1 19-5 25-7 20-11 21-9 12-8 10-15 15-12 9-13 8-16 8-24 8-23 4h-33l-13-2-21-5-8-3-5 1-12 6-12 3-14 1h-58v168l-1 19-4 21-7 20-8 16-12 18-11 12-10 10-15 11-14 8-18 8-18 5-17 3-14 1h-25l-20-2-21-5-15-6-16-8-13-9-11-9-14-14-10-13-10-17-8-19-5-18-3-22v-178h-128v167l-1 20-4 21-7 20-8 16-12 18-11 12-10 10-15 11-14 8-18 8-18 5-17 3-14 1h-25l-21-2-20-5-15-6-16-8-13-9-11-9-14-14-10-13-9-15-7-15-6-19-3-17-1-9v-179h-62l-17-2-12-5-7-4-6 1-17 5-22 4h-35l-22-4-21-7-19-9-12-8-13-10-17-17-12-16-10-17-8-20-5-19-3-21v-769l3-18 5-15 8-16 9-13 11-12 9-8 15-10 15-7 13-4 10-2 11-1 111-1 10-49 8-30 10-30 12-29 14-29 13-23 13-21 12-17 16-21 12-14 9-10 7-8 3-3-2-4-53-53-9-14-5-14-1-6v-16l4-16 7-13 9-10 9-8 15-7 7-2zm345 143-23 2-30 5-32 8-23 8-26 11-22 11-23 14-16 11-13 10-13 11-10 9-23 23-9 11-10 12-14 20-11 18-10 18-10 21-10 26-6 19-7 28-1 10h728l1-2-10-40-8-24-11-26-12-24-14-23-12-17-14-18-22-24-9-9-8-7-13-11-16-12-18-12-15-9-23-12-22-10-28-10-26-7-26-5-23-3-14-1zm-565 434v740l3 10 6 9 9 6 10 3 13-1 10-5 7-7 4-8 2-9v-738zm192 0v768h768v-768zm896 0v740l3 10 6 9 9 6 10 3 13-1 10-5 7-7 4-8 2-9v-738zm-768 896v171l3 9 6 7 8 4 5 1h20l10-3 6-5 5-9 1-5v-170zm448 0v171l3 9 6 7 8 4 5 1h20l10-3 6-5 5-9 1-5v-170z" fill="#032648"/>
</svg>
