<?xml version="1.0" encoding="UTF-8"?>
<svg version="1.1" viewBox="0 0 2048 2048" width="512" height="512" xmlns="http://www.w3.org/2000/svg">
<path transform="translate(443,63)" d="m0 0h10l16 2 15 5 17 9 10 8 7 6 11 14 10 19 322 1 14 2 10 6 7 8 4 11v165h255v-161l2-9 4-8 3-4h2v-2l10-6 11-2 326-1 8-16 8-11 9-10 14-11 15-8 16-5 16-2h10l16 2 13 4 16 8 14 10 10 10 10 14 7 15 5 19 1 16-1 14-5 19-8 16-8 11-9 10-10 8-14 8-16 6-15 3h-22l-16-3-15-6-11-6-11-9-11-11-7-10-9-18h-292l-1 126h733l14 2 10 6 7 8 4 10 1 57v726l-1 447-7 14-8 7-8 3-6 1h-706l-1 191h316l15 2 10 6 7 8 4 10v142l-7 14-8 7-8 3-6 1h-1097l-11-4-9-8-6-12-1-10v-128l2-9 4-8 5-5 8-6 5-2 8-1h320v-191h-709l-11-4-9-8-5-9-2-14v-1215l2-9 4-8 5-5 8-6 5-2 8-1h736v-127l-292 1-8 16-7 10-9 10-9 8-11 7-10 5-15 5-12 2h-22l-15-3-16-6-13-8-13-11-8-9-9-14-6-13-4-16-1-7v-17l3-17 4-12 7-14 9-12 4-5 8-7 13-9 14-7 14-4zm1 65-10 3-8 6-5 6-4 10v14l4 10 7 8 9 5 4 1h13l10-4 8-7 5-7 2-6v-14l-5-12-7-7-11-5-5-1zm1153 0-8 2-6 3-9 8-4 8-1 5v13l4 10 7 8 9 5 4 1h13l10-4 8-6 5-8 2-6v-14l-5-12-7-7-11-5zm-1468 256-1 2v1021l6 1h1782l3-1v-1023h-702l-1 24v290l4 6 8 7 68 68 7 11 2 9-1 10-3 7-6 9-34 34-1 4 52 1 11 2 8 4 8 9 4 11 1 37 10 1 315-1 10-19 11-14 11-10 14-9 11-5 13-4 17-2h9l16 2 13 4 16 8 14 10 9 9 10 14 7 15 5 19 1 18-2 17-5 16-8 16-11 14-11 10-13 8-11 5-17 5-7 1h-23l-18-4-16-7-11-7-12-11-9-10-9-16-4-8h-324l-2 39-4 10-8 9-10 4-5 1-55 1v4l7 8 29 29 6 10 2 12-3 12-6 10-90 90-9 6-8 3-8 1-12-3-10-7-33-33-5-2-1 10-1 49-4 10-8 9-9 4-6 1h-138l-11-4-9-8-4-8-2-10-1-53-5 2-35 35-11 6-11 2-10-2-8-4-13-12-81-81-6-9-3-7-1-10 3-11 5-8 12-13 22-22 2-5-3-1-54-1-11-4-9-8-5-11-1-7-1-33h-324l-9 17-7 10-9 10-8 7-11 7-10 5-15 5-12 2h-22l-15-3-16-6-13-8-13-11-10-12-8-14-5-12-3-13-1-8v-17l4-20 6-15 9-14 8-10 11-9 14-9 15-6 14-3 11-1h9l19 3 12 4 17 9 10 8 6 5 8 10 8 13 6 11 321 1 3-1 1-31 2-11 6-12h2v-2l5-2 8-4 8-1 53-1-3-6-32-32-7-10-3-10v-8l4-11 6-8 78-78v-316zm768 0-1 24v286l3 5 19 19h2l2 4 5 1 1-52 2-10 4-8 4-5 8-5 5-2 8-1h128l12 2 8 4 8 9 4 10 1 52 1 6 4-1 10-9 16-16v-313zm96 320-1 3-1 47-4 9-6 8-12 6-21 8-20 9-4 1h-14l-10-4-10-9-23-23-4 1-22 22v2l-4 2v2l-4 2v2l-4 2-8 8 6 7 24 24 6 10 2 7v10l-5 14-5 10-9 24-6 10-8 6-10 3-47 1-1 3v62l48 1 10 4 9 8 6 13 8 21 9 20 1 11-4 13-9 11-16 16-8 7 1 4 7 7 8 7 8 8h2v2l8 7 9 8 3-1 7-8 20-20 10-6 7-2h11l13 5 20 9 19 7 8 6 6 9 2 6 1 49h62l1-46 4-11 8-9 12-6 19-7 17-8 5-2 13-1 10 3 9 6 17 16 8 7 4 4 4 1 5-5v-2h2l7-8 9-9 7-8 11-12-2-4-25-25-7-10-3-8v-11l5-14 9-21 6-16 6-8 9-6 4-2 6-1 45-1v-63l-47-1-10-4-6-4-7-11-7-19-12-27-1-4v-11l4-11 7-9 20-20 2-1v-2h2l1-3-11-12-32-32-5 3-7 8-16 16-9 7-7 3-12 1-11-3-22-10-17-6-10-6-6-8-3-7-1-8-1-43zm763 224-10 3-8 6-5 6-4 10v14l4 9 6 8 8 5 6 2h13l10-4 8-6 5-8 2-6v-14l-5-12-7-7-8-4-8-2zm-1471 0-9 2-9 6-6 7-4 10v14l4 10 7 8 9 5 4 1h13l10-4 8-6 5-8 2-6v-14l-5-12-7-7-11-5zm-156 544-1 3v60l1788 1 3-1v-63zm736 128-1 15v176l317 1 2-1v-191zm-352 256-1 3v60l1020 1 3-1v-63z"/>
<path transform="translate(1630,447)" d="m0 0h192l13 2 10 6 7 8 4 10v15l-6 12-9 8-13 4-163 1-1 262-4 10-9 10-10 4-6 1h-201l-11-4-9-8-6-12v-16l4-10 6-7 14-7 7-1h160v-257l2-9 4-8 5-6 10-6z"/>
<path transform="translate(222,447)" d="m0 0h192l13 2 10 6 7 8 4 10v262h156l15 2 10 6 7 8 4 9v16l-6 12-9 8-8 3-6 1h-201l-11-4-9-8-6-12-1-11v-253h-165l-11-4-9-8-6-12-1-8 2-12 6-10 9-7 8-3z"/>
<path transform="translate(1019,831)" d="m0 0h10l19 2 15 4 13 5 17 9 12 9 10 9 7 7 10 14 8 14 6 14 5 20 1 8v29l-4 20-7 19-8 15-13 17-10 10-10 8-13 8-14 7-15 5-13 3-9 1h-26l-17-3-18-6-16-8-11-7-14-12-8-8-11-15-11-21-6-20-2-11-1-11v-12l2-17 5-19 6-15 9-15 8-11 5-6h2l2-4 8-7 14-10 17-9 18-6 16-3zm1 65-16 3-16 8-10 9-6 7-6 10-4 12-2 17 3 17 6 13 7 10 8 8 14 8 12 4 5 1h18l15-4 11-6 11-9 8-10 6-12 3-13v-18l-4-15-7-13-9-10-10-8-11-5-11-3z"/>
</svg>
